<?xml version="1.0" encoding="iso-8859-1"?>
<!-- Uploaded to: SVG Repo, www.svgrepo.com, Generator: SVG Repo Mixer Tools -->
<svg fill="#000000" height="800px" width="800px" version="1.1" id="Capa_1" xmlns="http://www.w3.org/2000/svg" xmlns:xlink="http://www.w3.org/1999/xlink" 
	 viewBox="0 0 370 370" xml:space="preserve">
<g id="XMLID_36_">
	<path id="XMLID_340_" d="M315,340h-15v-46.847c0-5.129-1.578-10.135-4.519-14.336l-59.171-88.816l59.171-88.816
		c2.941-4.202,4.519-9.207,4.519-14.337V30h15c8.284,0,15-6.716,15-15s-6.716-15-15-15H55c-8.284,0-15,6.716-15,15s6.716,15,15,15
		h15v56.848c0,5.129,1.578,10.134,4.519,14.337l59.171,88.816l-59.171,88.816C71.578,283.018,70,288.023,70,293.153V340H55
		c-8.284,0-15,6.716-15,15s6.716,15,15,15h260c8.284,0,15-6.716,15-15S323.284,340,315,340z M270,80H100V30h170V80z M100,294.678
		l58.657-88.044l11.082-16.633l-11.082-16.633L116.44,110H253.56l-42.216,63.367l-11.082,16.633l11.082,16.633L270,294.678V339H100
		V294.678z"/>
</g>
</svg>